PathFileType	4	(X/Y/Z)	./resultDataOpenSim/trcMotMarkerGrf/sub10/qtm-13-04.trc
DataRate	CameraRate	NumFrames	NumMarkers	Units	OrigDataRate	OrigDataStartFrame	OrigNumFrames
250.000000	250.000000	9	24	m	250.000000	300	479
Frame#	Time	L.Toe.Tip			R.Toe.Tip			L.Ankle.Lat			R.Ankle.Lat			L.Ankle.Med			R.Ankle.Med			L.Heel			R.Heel			L.Knee.Lat			R.Knee.Lat			L.Knee.Med			R.Knee.Med			L.Thigh.Upper			R.Thigh.Upper			L.ASIS			R.ASIS			V.Sacral			L.Acromium			R.Acromium			C7			L.Elbow			R.Elbow			L.Wrist.Lat			R.Wrist.Lat
		X1	Y1	Z1	X2	Y2	Z2	X3	Y3	Z3	X4	Y4	Z4	X5	Y5	Z5	X6	Y6	Z6	X7	Y7	Z7	X8	Y8	Z8	X9	Y9	Z9	X10	Y10	Z10	X11	Y11	Z11	X12	Y12	Z12	X13	Y13	Z13	X14	Y14	Z14	X15	Y15	Z15	X16	Y16	Z16	X17	Y17	Z17	X18	Y18	Z18	X19	Y19	Z19	X20	Y20	Z20	X21	Y21	Z21	X22	Y22	Z22	X23	Y23	Z23	X24	Y24	Z24

300	1.196	0.1468986	0.0295024	-0.18620487	0.88725274	0.0383446	-0.0099459141	0.14110947	0.17070343	-0.22285081	0.74559166	0.057163715	0.041334122	0.17386302	0.16908182	-0.14376776	0.75804139	0.080572932	-0.044924272	0.099298522	0.21536219	-0.17075876	0.69249299	0.031599956	0.0026494299	0.42933313	0.42370322	-0.24169182	0.78522061	0.45152776	0.050142088	0.4508522	0.37888635	-0.12804179	0.78670162	0.46118081	-0.078674886	0.54579716	0.79383409	-0.26564476	0.65270871	0.84459464	0.11252395	0.63176879	0.89846015	-0.20985483	0.68805376	0.92563248	0.017336949	0.46663611	0.93601475	-0.051558837	0.56151341	1.3964964	-0.21712906	0.51883853	1.3869622	0.092519139	0.4688611	1.403061	-0.075285003	0.54565784	1.0718586	-0.36998792	0.34740509	1.0973799	0.14692434	0.79106647	1.0644077	-0.44491624	0.33388883	0.97091103	0.36232421
301	1.2	0.1531841	0.032795146	-0.18855303	0.88712694	0.03833089	-0.009983974	0.14847149	0.17435244	-0.22292768	0.74550237	0.056288209	0.04122941	0.18162359	0.17171124	-0.14407676	0.75783746	0.079539018	-0.045161859	0.10744744	0.21899029	-0.17027686	0.69224865	0.030967317	0.0026803175	0.44017367	0.42275612	-0.24222792	0.78848556	0.44969126	0.049634981	0.46166496	0.37828349	-0.12849462	0.78910213	0.45887363	-0.079218555	0.55328293	0.79287401	-0.26527489	0.65935482	0.84360808	0.11290853	0.63842589	0.89846586	-0.20950346	0.69529538	0.92515532	0.017743749	0.47323789	0.93477916	-0.051337597	0.56832572	1.396233	-0.21667668	0.52594486	1.3868463	0.093475826	0.47551742	1.4033308	-0.074277163	0.55132454	1.0713612	-0.36877335	0.35584613	1.096084	0.14699235	0.7964874	1.0626229	-0.4432393	0.34189952	0.96795578	0.36107291
302	1.204	0.15984046	0.036073558	-0.19082443	0.88710861	0.038327309	-0.010035248	0.15596559	0.17796576	-0.22287573	0.74560304	0.055997086	0.041063986	0.1896115	0.17430267	-0.1443715	0.75791422	0.078908216	-0.045466474	0.11578846	0.22252563	-0.16978569	0.69214735	0.030823397	0.0025460975	0.45108366	0.42183549	-0.2427932	0.79121474	0.4479596	0.049084777	0.47247141	0.37769046	-0.12892197	0.79104281	0.45654144	-0.07970638	0.56060142	0.7918966	-0.26489852	0.66586419	0.8425858	0.11327841	0.64508683	0.89846756	-0.20917922	0.70231274	0.9247095	0.01812781	0.47965695	0.93347691	-0.051092423	0.57517291	1.3959931	-0.21624887	0.53303565	1.3867735	0.094395978	0.48214024	1.4036525	-0.073302305	0.55703186	1.0709438	-0.36769714	0.36432825	1.0947787	0.14707329	0.80185447	1.0607286	-0.44155046	0.35003585	0.96492264	0.35977538
303	1.208	0.16687446	0.039338414	-0.19297766	0.88717613	0.038329932	-0.010083333	0.16372603	0.18149861	-0.2228257	0.74588256	0.056090441	0.040884549	0.19782702	0.17685782	-0.14465594	0.75820484	0.078657751	-0.045759373	0.12431544	0.22596282	-0.16932545	0.69215114	0.030980343	0.0023411201	0.46208546	0.42096857	-0.2433661	0.79351338	0.44650468	0.048485726	0.48330484	0.37708312	-0.1293673	0.79252854	0.45429067	-0.080171142	0.56775303	0.79091299	-0.26451476	0.67227694	0.84168098	0.11366306	0.65171566	0.89847374	-0.20885907	0.70911679	0.92432043	0.018495972	0.48581486	0.93218393	-0.05077917	0.58202467	1.3957956	-0.21583616	0.54011373	1.3867542	0.095286472	0.48870673	1.4040141	-0.072364977	0.5628027	1.0705674	-0.36673754	0.37284288	1.0934759	0.14716796	0.80715886	1.0587157	-0.43984029	0.35829691	0.96181596	0.35842924
304	1.212	0.17428578	0.042584541	-0.19499534	0.88727635	0.038329168	-0.010115511	0.17185718	0.18492685	-0.2228685	0.74626888	0.056311902	0.040727874	0.20627158	0.17938155	-0.14492156	0.75859745	0.078675581	-0.045976669	0.13302417	0.22929949	-0.16892838	0.69220017	0.031239592	0.0021459801	0.47320424	0.42018622	-0.2439255	0.7957167	0.4454767	0.047908283	0.49420859	0.37645888	-0.12990387	0.79369492	0.45224407	-0.080585299	0.57478251	0.78993254	-0.26410904	0.6785731	0.84104369	0.11409108	0.65826228	0.89849376	-0.20853752	0.71575156	0.92401752	0.018872044	0.49159615	0.93100745	-0.050368946	0.58884503	1.3956536	-0.21539869	0.54717987	1.3867867	0.096155855	0.49520289	1.4044093	-0.071463145	0.56856673	1.0701469	-0.36576065	0.38139041	1.0921864	0.14728527	0.81238252	1.0565939	-0.4381187	0.36667918	0.95864285	0.35703218
305	1.216	0.18206757	0.045804428	-0.19687094	0.887362	0.038318166	-0.010124867	0.18035829	0.1882474	-0.22299357	0.74664601	0.056496864	0.040621185	0.2149466	0.18187622	-0.14515785	0.75898539	0.07882533	-0.046089805	0.1419201	0.23254117	-0.16861617	0.69224658	0.031482338	0.0020068308	0.48443703	0.41949998	-0.24444806	0.79824849	0.4449571	0.047466206	0.50519644	0.37583267	-0.13054153	0.79480334	0.45055536	-0.080821814	0.58176592	0.78897763	-0.26365195	0.68465107	0.84075109	0.114576	0.6646927	0.89853293	-0.20823182	0.7222651	0.92382398	0.01928441	0.4969735	0.93002801	-0.049850463	0.59562566	1.3955802	-0.21491295	0.55423501	1.3868654	0.097009008	0.5016169	1.4048327	-0.070582945	0.57421225	1.0696686	-0.36463743	0.38997802	1.0909218	0.14743121	0.81751184	1.0543924	-0.43641339	0.375189	0.95541641	0.35558817
306	1.22	0.19019818	0.048986431	-0.19858639	0.88741638	0.038298596	-0.010109664	0.18917528	0.19145654	-0.22314993	0.74692809	0.05661304	0.040583088	0.22384449	0.18433746	-0.14536236	0.7593074	0.079010357	-0.046101725	0.15101159	0.23569519	-0.16840258	0.69227283	0.031684573	0.0019377992	0.49573734	0.41888756	-0.24491423	0.80137136	0.44494793	0.047230375	0.51623049	0.37523568	-0.13114677	0.79610996	0.44937941	-0.080768036	0.5887574	0.78808936	-0.26312223	0.69039219	0.84077658	0.11511388	0.67099187	0.89859813	-0.20797087	0.72868393	0.92375193	0.019748129	0.502128	0.92924985	-0.049261697	0.60237656	1.3955895	-0.21438238	0.56128327	1.3869874	0.097847132	0.50794509	1.405286	-0.069707345	0.57969635	1.0692081	-0.36335736	0.39860652	1.089693	0.14760729	0.82253913	1.0521305	-0.43474517	0.3838472	0.95215499	0.35410796
307	1.224	0.19864844	0.052109173	-0.20011584	0.88744661	0.038276321	-0.010071649	0.19827691	0.1945449	-0.22332034	0.74711412	0.056694544	0.040619624	0.23294944	0.18676037	-0.14553436	0.75955977	0.079193845	-0.046028437	0.160294	0.23876208	-0.16828665	0.69228517	0.031878089	0.0019385259	0.50705256	0.4183153	-0.24533125	0.80514964	0.44536791	0.047217447	0.52724673	0.37470184	-0.13155194	0.79773512	0.44881606	-0.08044768	0.59575275	0.78730272	-0.26251862	0.69575104	0.84101886	0.11569271	0.67716099	0.89870057	-0.20777896	0.73501104	0.92380886	0.02026015	0.50733953	0.92862298	-0.04869034	0.60909613	1.3956883	-0.2138107	0.56832643	1.3871495	0.098666862	0.5141999	1.4057777	-0.068831554	0.58505616	1.0688423	-0.36199112	0.40726535	1.0885083	0.14781316	0.82746018	1.0498077	-0.43311226	0.39267762	0.94887804	0.35259904
308	1.228	0.2074105	0.055146731	-0.20145457	0.88746402	0.038252328	-0.010012961	0.20767473	0.19750892	-0.22352452	0.74725804	0.056778146	0.040729083	0.24224805	0.18914277	-0.14566733	0.75977738	0.079383185	-0.04588294	0.16974977	0.24173367	-0.16825236	0.69229759	0.032103609	0.0020107541	0.51836776	0.41777277	-0.24572299	0.80953327	0.4460563	0.047422955	0.53819309	0.37425489	-0.1317396	0.79967034	0.44887045	-0.07999008	0.60270746	0.78663393	-0.26183774	0.70077066	0.84136718	0.11629463	0.6832109	0.89885195	-0.20766726	0.74123961	0.92400932	0.020810651	0.5127357	0.92810963	-0.048251315	0.61577177	1.395874	-0.21319767	0.57536334	1.3873461	0.099461446	0.52040428	1.4063163	-0.067967598	0.59033113	1.0686015	-0.36059137	0.41594143	1.0873721	0.14804349	0.83227421	1.0474153	-0.43150032	0.40169384	0.94560177	0.351062
